PathFileType  4	(X/Y/Z) C:\Users\antoi\Documents\MyRepositories\mobilecap\ResultsAnalysis
DataRate	CameraRate	NumFrames	NumMarkers	Units	OrigDataRate	OrigDataStartFrame	OrigNumFrames
100.0	100.0	4	51	mm	100.0	211	280
Frame#	Time	r_knee			r_shank_antsup			r_ankle			r_calc			r_5meta			r_toe			L_knee			L_shank_antsup			L_ankle			L_calc			L_5meta			L_toe			r_sh2			r_sh3			r_sh4			L_sh2			L_sh3			r_thigh1			r_thigh2			r_thigh3			r_thigh4			r_thigh5			L_thigh1			L_thigh2			L_thigh3			L_thigh4			r.ASIS			r.PSIS			L.ASIS			L.PSIS			C7			R_Shoulder			L_Shoulder			R_Sternum			L_Sternum			R_humerus			R_elbow_med			R_elbow_lat			R_forearm			R_wrist_radius			R_wrist_ulna			L_humerus			L_elbow_med			L_elbow_lat			L_forearm			L_wrist_radius			L_wrist_ulna			R_HJC			L_HJC			R_HJC_reg			L_HJC_reg			
		X1	Y1	Z1	X2	Y2	Z2	X3	Y3	Z3	X4	Y4	Z4	X5	Y5	Z5	X6	Y6	Z6	X7	Y7	Z7	X8	Y8	Z8	X9	Y9	Z9	X10	Y10	Z10	X11	Y11	Z11	X12	Y12	Z12	X13	Y13	Z13	X14	Y14	Z14	X15	Y15	Z15	X16	Y16	Z16	X17	Y17	Z17	X18	Y18	Z18	X19	Y19	Z19	X20	Y20	Z20	X21	Y21	Z21	X22	Y22	Z22	X23	Y23	Z23	X24	Y24	Z24	X25	Y25	Z25	X26	Y26	Z26	X27	Y27	Z27	X28	Y28	Z28	X29	Y29	Z29	X30	Y30	Z30	X31	Y31	Z31	X32	Y32	Z32	X33	Y33	Z33	X34	Y34	Z34	X35	Y35	Z35	X36	Y36	Z36	X37	Y37	Z37	X38	Y38	Z38	X39	Y39	Z39	X40	Y40	Z40	X41	Y41	Z41	X42	Y42	Z42	X43	Y43	Z43	X44	Y44	Z44	X45	Y45	Z45	X46	Y46	Z46	X47	Y47	Z47	X48	Y48	Z48	X49	Y49	Z49	X50	Y50	Z50	X51	Y51	Z51	

211	2.10000000	-194.28032	757.63087	-373.90522	-168.32114	642.51220	-347.20649	-222.23021	296.61379	-366.52838	-227.17670	297.81866	-452.32382	-182.01679	150.65288	-299.58932	-100.51417	164.13713	-300.15917	-165.18025	785.94623	-740.75190	-125.42747	686.41021	-738.93951	-186.07086	334.84575	-751.30032	-241.58251	335.80626	-683.29748	-115.46934	181.19447	-766.81648	-55.50451	200.38271	-720.36441	-150.34704	529.59119	-339.36232	-241.93547	628.34750	-355.97315	-230.97264	513.54644	-333.48993	-211.63076	683.15785	-765.07208	-183.08161	568.11332	-796.91684	-85.91656	991.21450	-345.83930	-88.08101	878.12323	-355.03711	-139.35563	852.02830	-321.75114	-199.30629	986.04774	-326.18071	-192.25557	868.06528	-335.00268	-48.72891	1029.41316	-741.50868	-59.28457	892.45001	-735.12903	-155.93843	1034.19104	-779.62925	-167.77921	897.79844	-765.37902	-68.61819	1253.04972	-378.59797	-233.91658	1338.34779	-493.83263	-11.54995	1275.81893	-630.38404	-213.51145	1355.12841	-593.89405	-90.51253	1824.14058	-488.38640	-39.39102	1840.64787	-378.92505	-17.13995	1832.27513	-572.02142	43.63210	1744.58035	-435.47746	54.32906	1751.90867	-480.90683	-29.38859	1918.08225	-290.69394	-4.39035	1987.32685	-64.41600	-54.52217	2040.65884	-123.87172	86.34350	2137.48322	-173.16455	173.16378	2208.78225	-168.36050	153.81943	2235.99429	-142.15967	29.24651	1904.12918	-651.99266	122.12951	1949.71084	-852.32616	104.45501	2012.19971	-798.51942	272.82222	2052.21647	-769.23051	366.51571	2111.10708	-764.56026	347.18815	2149.87853	-784.41291	-155.69840	1197.98429	-439.55924	-106.30241	1206.76789	-646.96990	-141.65324	1188.71566	-441.88311	-107.91443	1216.43599	-607.26443	
212	2.11000000	-190.21258	782.01509	-369.01201	-168.60567	666.23819	-344.62607	-233.25401	325.04456	-370.30495	-239.11022	331.42535	-455.04054	-204.25150	176.16603	-309.35981	-122.32738	178.96822	-315.31389	-158.04483	808.91219	-741.31082	-119.76813	707.92269	-739.89978	-190.26176	360.94058	-750.61733	-245.33635	366.74177	-683.00556	-130.64106	202.26035	-762.37914	-69.89369	217.90735	-716.13923	-154.14385	552.62889	-338.70081	-242.47234	654.60635	-355.05017	-235.63291	539.14958	-334.54579	-206.00177	706.45021	-765.71131	-181.45859	589.38368	-793.85320	-84.21583	1020.48869	-339.45874	-82.91827	907.73741	-347.93288	-133.44030	880.07697	-313.88423	-197.62736	1012.08274	-321.97282	-186.74191	894.14493	-327.98141	-44.60983	1057.23138	-746.70072	-50.70267	920.13729	-738.91870	-153.37766	1058.52717	-780.10055	-159.42079	921.27910	-767.29208	-67.42103	1276.54733	-378.68691	-232.46171	1366.28164	-491.40909	-11.81076	1301.02570	-629.88126	-212.23544	1383.59181	-591.67882	-88.23988	1846.82208	-487.47751	-38.76887	1864.92421	-376.61454	-14.13074	1854.95294	-571.80737	46.84706	1770.97626	-434.79588	57.15198	1778.08772	-480.74775	-32.23125	1942.50337	-288.34584	-21.35317	2011.33091	-59.79955	-67.19723	2064.94405	-121.79131	69.69043	2169.74952	-158.09151	154.10168	2247.34741	-138.31171	130.81192	2272.25019	-111.65001	29.85351	1925.09159	-653.95425	111.27599	1968.88522	-859.53271	95.20093	2031.57334	-807.64752	262.99321	2082.05270	-794.33001	353.13297	2146.45114	-802.05847	330.58714	2182.36245	-822.92401	-156.15134	1223.77216	-439.30667	-107.99532	1233.93418	-646.94168	-142.28721	1214.80371	-441.98226	-109.03389	1243.26776	-606.84492	
213	2.12000000	-188.45185	807.51579	-363.09008	-171.04265	690.27964	-340.59988	-243.67578	351.49788	-373.30002	-254.61824	363.65059	-455.83656	-215.61417	197.41027	-324.93941	-134.27462	198.15676	-336.51651	-151.20206	831.98266	-742.83367	-113.98035	729.91212	-740.49668	-191.78259	386.25868	-752.96531	-250.66830	395.36999	-689.87857	-139.08856	224.26539	-758.13417	-81.69703	237.30992	-707.20499	-159.66458	576.33281	-336.36951	-245.01083	680.92574	-351.88149	-241.47082	564.81825	-334.24271	-200.47736	730.54310	-765.62069	-178.99526	612.95708	-793.82427	-84.24148	1046.60995	-331.59938	-81.42876	934.42708	-339.40025	-132.70255	906.26385	-306.42781	-197.91591	1037.49488	-319.09112	-185.43172	919.71664	-322.43183	-42.04300	1083.01220	-750.71848	-44.26062	946.07430	-742.55958	-151.44063	1081.69175	-781.13073	-153.04674	943.70532	-769.47688	-66.89145	1299.74925	-378.82834	-232.34677	1390.50684	-490.37235	-13.23465	1326.49760	-631.03159	-211.93834	1407.64290	-589.05813	-83.62822	1869.32467	-486.09024	-37.11951	1888.09711	-373.53862	-9.44927	1877.19725	-572.03327	50.32812	1792.13371	-432.80687	60.84144	1799.04672	-479.13828	-34.04548	1965.60041	-283.73561	-39.26056	2033.22929	-54.24654	-80.92155	2086.87594	-117.88196	51.03876	2197.84303	-140.72822	131.66352	2280.17545	-108.86187	104.80287	2303.06998	-84.63117	32.38351	1945.60024	-658.32863	101.54910	1985.73037	-867.70068	87.06544	2048.94489	-818.43395	252.40991	2107.85895	-821.52371	337.56113	2176.70126	-842.04874	311.81606	2209.30361	-864.18501	-155.61159	1247.34489	-439.39462	-109.06990	1259.17557	-647.31159	-143.23050	1239.15760	-442.94586	-109.06074	1267.84481	-608.11988	
214	2.13000000	-188.18527	832.76849	-357.90693	-172.67562	713.49007	-336.47923	-251.50616	375.77084	-375.11384	-269.22833	392.74250	-454.58017	-218.58508	216.17000	-342.16501	-138.02170	221.63049	-357.22311	-144.70066	854.86666	-744.66958	-108.25545	751.81623	-740.93965	-191.62299	409.65644	-756.40492	-255.40156	421.07265	-699.83332	-141.45538	246.54902	-754.37110	-89.60035	259.00910	-697.15633	-163.99006	599.46477	-334.58269	-246.94065	706.25164	-346.88747	-245.77348	589.46749	-332.81134	-194.67353	754.57640	-766.05733	-175.91889	636.71075	-795.16754	-85.74725	1070.11279	-324.83798	-82.55029	958.32962	-331.95139	-135.25630	930.10758	-301.24184	-199.58865	1061.50912	-316.95575	-187.08889	943.89368	-319.11425	-41.16607	1106.38472	-752.36505	-40.88447	969.61196	-745.71560	-151.01247	1103.62226	-781.25247	-149.92042	965.41573	-771.13289	-66.46643	1322.74883	-378.89368	-232.74401	1411.87191	-490.13890	-14.39411	1350.92829	-632.67183	-212.42944	1428.86761	-587.15853	-76.94360	1892.24056	-483.94365	-33.85551	1909.86383	-369.73330	-3.55116	1898.90393	-572.25054	54.53687	1809.34793	-430.72293	65.26700	1816.04831	-477.43367	-35.48525	1986.70289	-277.55671	-57.52045	2052.64614	-48.56510	-95.19847	2105.72767	-113.25652	30.65055	2221.85690	-121.55743	107.26614	2307.43237	-80.51619	77.55285	2328.50836	-59.82044	35.83679	1965.84742	-664.50223	91.99058	2000.50147	-876.38182	79.88566	2064.41033	-829.93037	240.92289	2129.65327	-850.25698	319.87273	2201.34102	-883.36427	290.76649	2230.34248	-906.67283	-154.30632	1269.35408	-439.45042	-109.23594	1282.29131	-647.62890	-143.11266	1261.41301	-443.79091	-108.37164	1290.48587	-609.70644	
